PathFileType	4	(X/Y/Z)	C:/Users/Carlo/Dropbox/Carlos/SARAH/CongressoMarcha2025/WorkshopOpenSim/C3D/Caso01/Cal 01.c3d.trc
DataRate	CameraRate	NumFrames	NumMarkers	Units	OrigDataRate	OrigDataStartFrame	OrigNumFrames
100.000000	100.000000	4	70	mm	100.000000	66	178
Frame#	Time	LASI			RASI			LPSI			RPSI			LTHI			LKNE			LTIB			LANK			LHEE			LTOE			RTHI			RKNE			RTIB			RANK			RHEE			RTOE			PELO			PELA			PELL			PELP			LFEO			LFEA			LFEL			LFEP			LTIO			LTIA			LTIL			LTIP			LFOO			LFOA			LFOL			LFOP			LTOO			LTOA			LTOL			LTOP			RFEO			RFEA			RFEL			RFEP			RTIO			RTIA			RTIL			RTIP			RFOO			RFOA			RFOL			RFOP			RTOO			RTOA			RTOL			RTOP			LHipAngles			LKneeAngles			LAbsAnkleAngle			LAnkleAngles			RHipAngles			RKneeAngles			RAnkleAngles			RAbsAnkleAngle			LPelvisAngles			RPelvisAngles			LFootProgressAngles			RFootProgressAngles			LHJC			RHJC			LKJC			RKJC			LAJC			RAJC			
		X1	Y1	Z1	X2	Y2	Z2	X3	Y3	Z3	X4	Y4	Z4	X5	Y5	Z5	X6	Y6	Z6	X7	Y7	Z7	X8	Y8	Z8	X9	Y9	Z9	X10	Y10	Z10	X11	Y11	Z11	X12	Y12	Z12	X13	Y13	Z13	X14	Y14	Z14	X15	Y15	Z15	X16	Y16	Z16	X17	Y17	Z17	X18	Y18	Z18	X19	Y19	Z19	X20	Y20	Z20	X21	Y21	Z21	X22	Y22	Z22	X23	Y23	Z23	X24	Y24	Z24	X25	Y25	Z25	X26	Y26	Z26	X27	Y27	Z27	X28	Y28	Z28	X29	Y29	Z29	X30	Y30	Z30	X31	Y31	Z31	X32	Y32	Z32	X33	Y33	Z33	X34	Y34	Z34	X35	Y35	Z35	X36	Y36	Z36	X37	Y37	Z37	X38	Y38	Z38	X39	Y39	Z39	X40	Y40	Z40	X41	Y41	Z41	X42	Y42	Z42	X43	Y43	Z43	X44	Y44	Z44	X45	Y45	Z45	X46	Y46	Z46	X47	Y47	Z47	X48	Y48	Z48	X49	Y49	Z49	X50	Y50	Z50	X51	Y51	Z51	X52	Y52	Z52	X53	Y53	Z53	X54	Y54	Z54	X55	Y55	Z55	X56	Y56	Z56	X57	Y57	Z57	X58	Y58	Z58	X59	Y59	Z59	X60	Y60	Z60	X61	Y61	Z61	X62	Y62	Z62	X63	Y63	Z63	X64	Y64	Z64	X65	Y65	Z65	X66	Y66	Z66	X67	Y67	Z67	X68	Y68	Z68	X69	Y69	Z69	X70	Y70	Z70	

67	0.66	56.80969619750979	1047.048095703125	-312.2771301269532	74.14995574951175	1056.941040039063	-525.2705688476565	250.9995574951173	1063.337036132813	-342.947235107422	264.6540832519532	1064.41748046875	-454.2636718750002	120.0301513671876	749.590759277344	-217.4930877685548	125.2847290039063	539.224792480469	-252.7674102783204	157.5380096435547	302.864715576172	-219.3604278564454	175.6896209716797	100.0813293457032	-223.6071777343751	238.3983154296876	56.10956954956058	-265.5359802246095	12.8417501449585	63.001823425293	-247.6964569091798	127.9788894653321	817.0534057617192	-612.8540039062502	117.8806762695313	537.669860839844	-575.980163574219	149.948959350586	383.649871826172	-604.9138793945315	180.132797241211	96.4765243530274	-598.8629150390627	246.2037200927736	58.89764785766604	-553.6050415039065	21.71518898010255	62.66987609863284	-576.8659667968752	118.7535705566407	958.1619262695317	-418.7949829101565	-9.467773437500004	950.1325683593755	-429.6066894531252	108.3031921386719	952.1997680664067	-290.4309692382814	110.2593002319337	1086.700073242188	-413.516296386719	124.9640502929688	533.179138183594	-310.4505615234376	-299.352020263672	521.9882812500002	-306.9188232421876	127.3109207153321	577.4246826171877	111.7090148925782	113.466178894043	955.196899414063	-354.6173400878907	170.5314178466797	95.2446212768555	-268.5543518066407	-246.3767242431642	56.83767700195315	-216.5764465332032	218.3596038818361	140.0918273925782	148.2073974609376	127.0657958984376	512.979919433594	-308.5181579589845	16.16060256958009	87.3294372558594	-240.564910888672	20.92391395568848	305.3552856445314	-264.5730590820314	34.07378005981447	110.8763580322266	-23.17358398437501	234.7715911865236	80.64942169189456	-257.8550415039064	-56.70972442626956	89.55611419677737	-234.8015136718751	-55.12196350097659	162.2313842773438	-242.8042144775392	-50.73863601684573	97.40505981445318	-162.3377380371094	16.16059875488282	87.32944488525393	-240.5649261474611	114.2662963867188	532.9439697265627	-519.2915039062502	-314.5890197753907	544.9682617187502	-545.632263183594	87.01055145263675	497.3066101074221	-91.80767822265628	124.0409927368165	961.127075195313	-482.9726257324221	170.4675598144532	91.72514343261722	-553.6273193359377	-242.8619079589845	46.32012939453126	-646.7104492187502	81.89914703369143	48.18541336059573	-139.1068420410157	116.7859497070313	513.1631469726565	-520.8308715820315	17.43893241882325	81.65370941162112	-585.2111816406252	18.69840049743653	299.1099243164064	-562.1013183593752	-5.356447219848635	58.79988861083987	-368.9221801757814	234.9283447265626	77.99907684326175	-562.6754150390627	-55.05754470825198	82.8719177246094	-592.723083496094	-54.63772964477542	155.3573303222657	-585.0197753906252	-62.65598297119143	75.25395202636722	-520.6267700195315	17.43892288208009	81.65371704101565	-585.2111816406252	-8.474905967712406	-5.25155019760132	1.520945191383363	0.4830578267574313	-6.175896644592289	4.364274978637697	0	0	7.200433254241947	5.409691791746776e-14	1.826572299003602	7.204112052917484	-2.075505495071412	1.064457178115845	5.267254352569582	-0.1451961249113083	-8.448116302490238	8.548526763916019	6.955983098549949e-13	6.013468265533451	7.737285137176517	0	0	7.694454669952396	-2.346542358398438	4.814488887786867	3.78080463409424	2.346542358398438	-4.814488887786867	3.78080463409424	-6.302057743072513	-4.520073413848879	-91.75022125244143	-6.098768234252933	-5.914901256561281	-90.96269226074222	113.4661483764649	955.196899414063	-354.6173400878907	124.0409927368165	961.1269531250005	-482.9726257324221	124.9640502929688	533.179138183594	-310.4505920410157	114.2662963867188	532.9439697265627	-519.2915039062502	170.5314178466797	95.24461364746097	-268.5543518066407	170.4675598144532	91.72514343261722	-553.6273193359377	
68	0.67	56.89630889892581	1047.14892578125	-312.2268371582032	74.18398284912112	1057.049926757813	-525.2673339843752	251.0117187500001	1063.361694335938	-342.9305114746095	264.6561889648439	1064.443359375	-454.2424621582034	120.1708755493165	749.7064208984377	-217.4605102539064	125.4237823486329	539.3959960937502	-252.7344360351564	157.589828491211	302.9525451660157	-219.4144592285157	175.8271789550782	100.2111129760743	-223.5876770019532	238.4322967529298	56.103630065918	-265.5528869628907	12.90399742126466	63.07626724243167	-247.7275848388673	128.0334777832032	817.1334838867192	-612.847351074219	117.9798049926758	537.789733886719	-576.0540771484377	150.0206909179688	383.7434082031251	-604.9731445312502	180.2065124511719	96.55250549316412	-598.8776855468752	246.2095642089845	58.88785552978518	-553.6115722656252	21.78735351562501	62.75173950195315	-576.9136352539065	118.7785720825196	958.2467651367192	-418.7886962890627	-9.448799133300785	950.2663574218755	-429.5649108886721	108.3619461059571	952.2809448242192	-290.4221191406251	110.3341903686524	1086.787841796875	-413.5000305175784	125.0703506469727	533.3447265625002	-310.4168090820314	-299.1650695800782	522.1150512695315	-306.6393127441407	127.6565399169922	577.6233520507815	111.6598510742188	113.5080490112305	955.279907226563	-354.6097412109376	170.7357177734376	95.38204193115237	-268.5432739257814	-246.2689514160157	56.81348419189456	-217.1722869873048	217.9490661621095	140.1622467041016	148.3320007324219	127.1764297485352	513.1458740234377	-308.4855957031251	16.36028861999512	87.51963806152347	-240.5643615722657	21.20654106140137	305.5479125976564	-264.5335083007814	34.26949310302736	111.0212631225587	-23.16778564453126	234.9697723388673	80.76094818115237	-257.8428344726564	-56.50954055786136	89.7725524902344	-234.8048858642579	-54.89410018920901	162.4486236572266	-242.7946319580079	-50.53982543945315	97.60644531250006	-162.3393554687501	16.36027908325196	87.5196228027344	-240.5643615722657	114.3557205200196	533.0526123046877	-519.3670043945315	-314.4798278808595	545.007019042969	-545.784118652344	87.02788543701175	497.331970214844	-91.91180419921878	124.0490875244141	961.213500976563	-482.9676818847659	170.5505828857422	91.80900573730472	-553.6392822265627	-242.8164520263673	46.38742828369142	-646.6333007812502	82.06365203857425	48.33963012695315	-139.0746765136719	116.8749694824219	513.2714843750002	-520.9034423828127	17.5243263244629	81.79923248291018	-585.2542114257815	18.87099647521973	299.2571716308595	-562.1651000976565	-5.326002120971681	58.9760665893555	-368.9677124023439	235.0074768066407	78.05477142333987	-562.672546386719	-54.97005462646487	83.04737091064456	-592.7813720703127	-54.52117156982425	155.5333404541016	-585.0850219726565	-62.58679962158206	75.43962860107425	-520.6859130859377	17.52433013916016	81.79922485351565	-585.2542114257815	-8.480959892272953	-5.270295143127443	1.491247177124024	0.4884861111640932	-6.057794094085697	4.367903709411623	0	0	7.233696937561039	-7.955067472266954e-15	1.74305820465088	7.23707485198975	-2.086100816726685	1.039474368095398	5.234358787536623	-0.1267079710960389	-8.424057960510257	8.537826538085941	3.997499488546387e-14	5.987283229827883	7.759126663208011	0	0	7.716553211212162	-2.350976943969727	4.798651695251467	3.7585985660553	2.350976943969727	-4.798651695251467	3.7585985660553	-6.291765689849857	-4.516998767852785	-91.7708435058594	-6.09338474273682	-5.926984786987306	-90.98636627197268	113.5080566406251	955.279907226563	-354.6097717285157	124.0490951538087	961.2136230468755	-482.9676513671877	125.0703353881837	533.3447265625002	-310.4168090820314	114.3557205200196	533.0526123046877	-519.3670043945315	170.7357177734376	95.38204193115237	-268.5433044433595	170.5505828857422	91.80901336669925	-553.6392822265627	
69	0.68	56.93262481689456	1047.2275390625	-312.1906738281251	73.90476226806643	1057.189453125	-525.1907348632815	251.0492095947267	1063.403076171875	-342.9120178222657	264.684539794922	1064.4638671875	-454.2157897949221	120.2424926757813	749.7932128906252	-217.4488525390626	125.436637878418	539.4871826171877	-252.7308349609376	157.6076965332032	302.9785461425782	-219.4194183349611	175.8911743164063	100.2822952270508	-223.5646820068361	238.4574432373048	56.12091827392581	-265.561004638672	12.92922401428223	63.13344955444339	-247.7928924560548	128.1010742187501	817.1665039062505	-612.827819824219	118.0772399902344	537.8167724609377	-576.0504150390627	150.1054840087891	383.7791748046876	-604.995300292969	180.2561340332032	96.58359527587896	-598.8978271484377	246.2575683593751	58.9042892456055	-553.6263427734377	21.80409049987794	62.81719207763675	-576.956726074219	118.6232070922852	958.3367309570317	-418.8416442871096	-9.622795104980472	950.4059448242192	-429.4313964843752	108.3937225341797	952.3324584960942	-290.4617919921876	110.2328872680665	1086.879028320313	-413.4983215332034	125.0188522338868	533.4271240234377	-310.4118652343751	-299.2070922851564	522.2368774414065	-306.1635742187501	128.0757904052735	577.769470214844	111.6489562988282	113.4462432861329	955.3506469726567	-354.655975341797	170.7955780029297	95.4497985839844	-268.5194702148439	-246.2214202880861	56.78261566162112	-217.0942687988282	218.0503692626954	140.2646942138672	148.3755493164063	127.1299438476563	513.2288818359377	-308.4799194335939	16.41186714172364	87.61646270751956	-240.5781555175782	21.30105781555176	305.641326904297	-264.5694274902345	34.27076339721681	111.1383056640626	-23.17965698242188	235.0245056152345	80.81886291503909	-257.8013305664064	-56.45901107788089	89.8822937011719	-234.8370666503907	-54.82928466796878	162.5572509765626	-242.8341522216798	-50.50604629516604	97.72291564941412	-162.3708953857422	16.41186904907227	87.61643981933597	-240.5781250000001	114.3380661010743	533.0891113281252	-519.3699951171877	-314.5088500976564	544.882263183594	-546.6771240234377	86.13834381103518	497.4346313476565	-91.90310668945315	123.8001861572266	961.3227539062505	-483.0273437500002	170.5444030761719	91.83082580566409	-553.6723632812502	-242.7294311523439	46.4586753845215	-647.1871337890627	81.54227447509768	48.27453231811526	-139.2084350585938	116.8577117919922	513.3081054687502	-520.9077148437502	17.51991271972657	81.85841369628909	-585.3076171875002	18.90456581115723	299.3096923828126	-562.1582031250002	-5.359495162963869	58.97965240478518	-369.0301208496095	234.9997558593751	78.06703948974612	-562.702087402344	-54.9733695983887	83.122184753418	-592.8427734375002	-54.51183700561526	155.605941772461	-585.1262817382815	-62.59980010986331	75.49593353271487	-520.7503051757815	17.51992416381837	81.85842132568362	-585.3076171875002	-8.507940292358402	-5.250758647918703	1.4756098985672	0.4882829785346987	-5.999199867248537	4.381192207336428	0	0	7.259200096130375	-2.871807609425293e-13	1.7614483833313	7.262621402740482	-2.065612792968751	0.8383476734161381	5.173748016357424	-0.1539326459169388	-8.38156890869141	8.506998062133793	-3.166384526537975e-13	6.04991436004639	7.772561550140384	0	0	7.729017257690433	-2.375281333923341	4.715511798858644	3.734553575515749	2.375281333923341	-4.715511798858644	3.734553575515749	-6.297431945800785	-4.502543449401857	-91.78096771240237	-6.109435081481937	-5.933293819427492	-90.99874114990237	113.4462432861329	955.3506469726567	-354.6559448242189	123.800163269043	961.3227539062505	-483.0273132324221	125.0188522338868	533.4271240234377	-310.4118652343751	114.3380661010743	533.0891113281252	-519.3699951171877	170.7955780029297	95.4497985839844	-268.5194702148439	170.5444030761719	91.83081817626956	-553.6723632812502	
70	0.6900000000000001	56.91826629638675	1047.1826171875	-312.1539916992189	73.91261291503909	1057.093994140625	-525.1278076171877	251.106414794922	1063.423706054688	-342.901092529297	264.6970825195314	1064.47119140625	-454.2019042968752	120.1701049804688	749.7167968750002	-217.4299316406251	125.3809051513672	539.4044189453127	-252.7080078125001	157.4916687011719	302.9089660644532	-219.4357147216798	175.8020172119141	100.1813583374024	-223.5945129394532	238.4888610839845	56.11336517333987	-265.5672912597657	12.89334011077882	63.11494827270511	-247.7904357910157	128.1248626708985	817.120239257813	-612.7761230468752	118.1151580810547	537.7572021484377	-575.989440917969	150.1310119628907	383.7068481445314	-604.9358520507815	180.2705535888672	96.52834320068365	-598.8818359375002	246.2951049804689	58.88823318481448	-553.6313476562502	21.8181495666504	62.789421081543	-576.9419555664065	118.6557922363282	958.2868041992192	-418.7602233886721	-9.585769653320316	950.304321289063	-429.3647766113284	108.4116744995118	952.3122558593755	-290.3801879882814	110.2157287597657	1086.827270507813	-413.4516906738284	125.0010299682618	533.3540649414065	-310.3903198242189	-299.2583618164064	522.1771240234377	-306.4238891601564	127.780860900879	577.6286621093752	111.7100524902344	113.4715194702149	955.315551757813	-354.574432373047	170.7623901367188	95.36039733886722	-268.5568237304689	-246.3235778808595	56.64503479003909	-217.6564941406251	217.4990234375001	140.0692901611329	148.4171142578126	127.1113739013672	513.1553955078127	-308.4611206054689	16.37911415100098	87.51335144042972	-240.6170043945314	21.2606544494629	305.5456542968751	-264.5420837402345	34.23860931396486	110.9697647094727	-23.21148681640626	234.9918670654298	80.7284851074219	-257.8436584472657	-56.49180984497073	89.77497100830081	-234.8748016357423	-54.86463928222659	162.4524078369141	-242.849822998047	-50.53865814208987	97.59377288818365	-162.4062957763672	16.37910079956055	87.51335906982425	-240.6170043945314	114.3860397338868	533.026550292969	-519.3086547851565	-314.4652709960939	544.806579589844	-546.540222167969	86.26220703125003	497.349548339844	-91.83935546875003	123.840072631836	961.257934570313	-482.9460449218752	170.5657348632813	91.77236938476565	-553.655212402344	-242.7210998535157	46.42761230468751	-647.1075439453127	81.62776947021487	48.18713378906253	-139.1846313476563	116.9044952392579	513.2456665039065	-520.848327636719	17.53878211975098	81.79261016845706	-585.2762451171877	18.91265487670899	299.242645263672	-562.114685058594	-5.318370819091799	58.90023040771487	-368.9978332519532	235.0210418701173	78.01295471191409	-562.6919555664065	-54.9553031921387	83.0524826049805	-592.8043212890627	-54.49736022949222	155.5358276367188	-585.0838012695315	-62.5743217468262	75.42167663574222	-520.7114868164065	17.53878402709962	81.79262542724612	-585.2762451171877	-8.486443519592289	-5.218152523040773	1.504737377166749	0.4903782308101656	-5.965310573577883	4.384676456451418	0	0	7.254319190979007	-2.704648300027452e-13	1.690375924110413	7.257497787475589	-2.08138918876648	0.8553845882415776	5.196461677551271	-0.1551904082298279	-8.383083343505863	8.502379417419437	-1.287336394168587e-13	6.047074794769291	7.765969276428226	0	0	7.722500324249271	-2.359814167022706	4.722086429595949	3.756694555282595	2.359814167022706	-4.722086429595949	3.756694555282595	-6.280021190643314	-4.503419399261476	-91.77766418457034	-6.112594604492191	-5.927690505981447	-90.99564361572268	113.4714965820313	955.3156127929692	-354.574432373047	123.8400955200196	961.2580566406255	-482.9460144042971	125.0010299682618	533.3540649414065	-310.3903198242189	114.3860473632813	533.026550292969	-519.3086547851565	170.7624053955079	95.36039733886722	-268.5568237304689	170.5657348632813	91.77236938476565	-553.655212402344	
